<?xml version="1.0" encoding="utf-8"?>
<!-- Generator: Adobe Illustrator 21.1.0, SVG Export Plug-In . SVG Version: 6.00 Build 0)  -->
<svg version="1.1" id="pictogram_1_" xmlns="http://www.w3.org/2000/svg" xmlns:xlink="http://www.w3.org/1999/xlink" x="0px"
	 y="0px" viewBox="52 53.7 112 93.9" xml:space="preserve">
<style type="text/css">
	.st0{fill:#0032FF;}
</style>
<g id="pictogram">
	<g>
		<path class="st0" d="M70.4,82.6h36.9c-7.8,15-7.8,42.1-5.5,49.6h14.6c-10.3-18.1-5.9-37.1-2.4-46.4l0.5,0.5l0,0l20.7,20.7
			c1-4.9,1.2-11.9-5.2-18.9c-4-4-4.8-4.1-8-5.7h29.3c-4.2-6-11.3-9.6-19.7-9.6c-2.1,0-4.1,0.2-6,0.6l19.7-19.7
			c-8.7-2.1-17.7,0.4-24.8,7.4l-0.5,0.5c-3.3,3.4-5.6,7.2-6.8,11.1c-1.3-3.2-3.3-6.3-6.1-9c-6.4-6.4-14.5-9-22.4-7.5l15.4,15.5
			C98,71.3,95.8,71,93.4,71h-0.1C83.5,71.1,75.3,75.4,70.4,82.6z"/>
		<path class="st0" d="M95.3,116.9H82.5l-8.8,8.8h9l3.7-5.1h7L95.3,116.9z"/>
		<path class="st0" d="M65.4,134.1h11.2l-4,5.4h11.6l-4,8.1H52L65.4,134.1z"/>
		<path class="st0" d="M118.4,120.6l-1.3-3.7h16.5l6.5,6.5h-8l-2.1-2.8H118.4z"/>
		<path class="st0" d="M137.3,130.4h9.7l17.1,17.1H108v-8.1h36.1L137.3,130.4z"/>
	</g>
</g>
<path class="st0" d="M109,88"/>
</svg>
